<svg xmlns="http://www.w3.org/2000/svg" viewBox="0 0 512 512" width="512" height="512">
  <defs>
    <linearGradient id="grad" x1="0%" y1="0%" x2="100%" y2="100%">
      <stop offset="0%" style="stop-color:#8B5CF6;stop-opacity:1" />
      <stop offset="100%" style="stop-color:#EC4899;stop-opacity:1" />
    </linearGradient>
  </defs>
  <!-- Rounded background -->
  <rect width="512" height="512" rx="100" ry="100" fill="url(#grad)"/>
  <!-- Shopping bag body -->
  <path d="M152 200 L152 380 Q152 400 172 400 L340 400 Q360 400 360 380 L360 200 Z" fill="none" stroke="white" stroke-width="18" stroke-linejoin="round"/>
  <!-- Bag handle -->
  <path d="M210 200 L210 160 Q210 120 256 120 Q302 120 302 160 L302 200" fill="none" stroke="white" stroke-width="18" stroke-linecap="round"/>
  <!-- Sound wave / vibe lines -->
  <path d="M210 280 Q230 250 250 280 Q270 310 290 280 Q310 250 330 280" fill="none" stroke="white" stroke-width="14" stroke-linecap="round"/>
  <path d="M220 310 Q237 290 255 310 Q273 330 290 310" fill="none" stroke="white" stroke-width="10" stroke-linecap="round" opacity="0.7"/>
</svg>
